PathFileType	4	(X/Y/Z)	C:\Documents and Settings\rtobon\Desktop\NewMocap\New\NoT\ActorC_TPose.trc
DataRate	CameraRate	NumFrames	NumMarkers	Units	OrigDataRate	OrigDataStartFrame	OrigNumFrames
120.00	120.00	       4	49	mm	120.00	104	       277
Frame#	Time	Root			LtFtHip			LtBkHip			RtFtHip			RtBkHip			Spine1			Spine2			Spine3			SpineOffsetLow			SpineOffsetHigh			LtCtChest			RtCtChest			LtChest			RtChest			LtShoulder			LtBicep			LtElbow			LtForeArm			LtWrist			LtPinky			LtThumb			LtMiddFing			RtShoulder			RtBicep			RtElbow			RtForeArm			RtWrist			RtPinky			RtThumb			RtMiddFing			LtThigh			LtKnee			LtCalf			LtAnkle			LtHeel			LtBall			LtToe			RtThigh			RtKnee			RtCalf			RtAnkle			RtHeel			RtBall			RtToe			TopHead			LfFtHead			LtBkHead			RtFtHead			RtBkHead			
		X1	Y1	Z1	X2	Y2	Z2	X3	Y3	Z3	X4	Y4	Z4	X5	Y5	Z5	X6	Y6	Z6	X7	Y7	Z7	X8	Y8	Z8	X9	Y9	Z9	X10	Y10	Z10	X11	Y11	Z11	X12	Y12	Z12	X13	Y13	Z13	X14	Y14	Z14	X15	Y15	Z15	X16	Y16	Z16	X17	Y17	Z17	X18	Y18	Z18	X19	Y19	Z19	X20	Y20	Z20	X21	Y21	Z21	X22	Y22	Z22	X23	Y23	Z23	X24	Y24	Z24	X25	Y25	Z25	X26	Y26	Z26	X27	Y27	Z27	X28	Y28	Z28	X29	Y29	Z29	X30	Y30	Z30	X31	Y31	Z31	X32	Y32	Z32	X33	Y33	Z33	X34	Y34	Z34	X35	Y35	Z35	X36	Y36	Z36	X37	Y37	Z37	X38	Y38	Z38	X39	Y39	Z39	X40	Y40	Z40	X41	Y41	Z41	X42	Y42	Z42	X43	Y43	Z43	X44	Y44	Z44	X45	Y45	Z45	X46	Y46	Z46	X47	Y47	Z47	X48	Y48	Z48	X49	Y49	Z49	

104	0.858	31.52408	977.77948	-152.45688	163.44882	936.36548	55.42117	164.13379	970.95819	-118.27650	-109.98373	931.38159	62.00013	-106.83305	950.65051	-128.05690	31.86339	1136.52954	-148.30016	33.86614	1279.03845	-151.86400	42.76537	1406.54883	-119.10014	-53.04713	1044.05554	-137.35258	131.64552	1352.79846	-137.61865	55.66388	1214.22180	111.64686	-3.41701	1285.22034	97.06296	128.97694	1324.53235	78.24438	-72.03484	1331.11755	65.49606	167.22984	1425.80261	-21.22385	361.60535	1380.29199	-15.29600	478.97733	1361.62500	-85.34420	589.24939	1367.87427	1.54835	709.45526	1374.28784	-18.52915	771.94989	1339.73108	-63.25924	737.99597	1352.16235	48.73026	764.07819	1380.45154	-7.01487	-111.03566	1426.33813	-43.02773	-296.27814	1378.99377	1.07128	-405.90134	1373.02014	-109.28320	-531.42230	1386.89050	-1.25794	-654.45184	1413.64014	-43.38885	-716.67426	1374.23120	-87.42047	-677.90125	1375.65015	28.91696	-717.10852	1410.03589	-29.82163	170.88725	681.31781	60.05465	192.84628	487.90216	-17.30125	203.59256	375.45776	-140.90179	203.41988	167.34222	-84.53215	151.89554	46.19519	-173.09726	212.32799	64.17082	4.51692	154.63763	57.66665	99.36517	-128.83231	671.84521	51.30802	-160.21733	511.94904	-25.61998	-189.71848	376.55701	-130.52243	-182.35622	165.68468	-98.70863	-122.93024	47.68438	-170.71007	-205.95834	65.32327	5.52892	-150.49771	65.00893	100.73482	33.48370	1692.60571	-38.69156	92.07154	1626.18201	56.87586	123.73267	1546.97717	-70.78167	-45.42165	1625.90723	36.83345	-34.40412	1545.97095	-100.97225	
105	0.867	31.52408	977.77948	-152.45688	163.50674	936.47113	55.37442	164.04048	971.03259	-118.23037	-110.11256	931.37909	61.98266	-106.85704	950.79462	-128.28975	31.86339	1136.52954	-148.30016	33.70128	1279.25403	-152.00612	42.64928	1406.48499	-119.19267	-53.15670	1044.11218	-137.23146	131.52322	1352.77722	-137.62816	55.66388	1214.22180	111.64686	-3.35879	1285.22339	97.18038	128.97694	1324.53235	78.24438	-72.13222	1331.05469	65.54194	167.17500	1425.73645	-21.39244	361.52710	1380.31824	-15.41089	478.92166	1361.66638	-85.34512	589.21515	1368.09045	1.60682	709.41315	1374.33215	-18.50186	771.95599	1339.75928	-63.22417	738.01111	1352.33630	48.33817	764.07819	1380.45154	-7.01487	-111.11212	1426.57556	-42.86326	-296.27670	1379.03418	1.06333	-405.83405	1373.17517	-109.45028	-531.33722	1386.92236	-1.27163	-655.06805	1413.56750	-43.54716	-716.65826	1374.22314	-87.59399	-677.99707	1375.68555	28.86968	-717.20209	1410.04199	-30.08099	170.74158	681.20154	60.18006	192.87749	487.78058	-17.32267	203.59256	375.45776	-140.90179	203.37846	167.27936	-84.50966	151.85635	45.90700	-173.07112	212.27040	64.18945	4.88733	154.68729	57.63615	99.36031	-128.83231	671.84521	51.30802	-160.21733	511.94904	-25.61998	-189.72418	376.62411	-130.34839	-182.25632	165.88007	-98.67452	-122.93024	47.68438	-170.71007	-205.95834	65.32327	5.52892	-150.56465	65.00368	100.77838	33.50945	1692.62146	-38.76231	92.08990	1626.14636	56.77051	123.73267	1546.97717	-70.78167	-45.44875	1625.92859	36.59692	-34.36626	1545.95068	-101.01028	
106	0.875	31.52408	977.77948	-152.45688	163.35553	936.42816	55.22333	164.11797	971.04596	-118.24718	-110.11256	931.37909	61.98266	-106.62876	950.65137	-127.95382	31.86339	1136.52954	-148.30016	33.74772	1279.19788	-152.05585	42.63551	1406.47253	-119.18172	-53.04713	1044.05554	-137.35258	131.61224	1352.81458	-137.80620	55.74773	1214.19434	111.41328	-3.33682	1285.36121	96.98111	128.97694	1324.53235	78.24438	-72.07264	1331.07019	65.47536	167.11217	1425.77124	-21.46349	361.51233	1380.35730	-15.48964	478.80130	1361.90588	-85.57392	589.22369	1368.05859	1.57893	709.33917	1374.52698	-18.62654	771.95599	1339.75928	-63.22417	738.15308	1352.38000	48.17949	764.07574	1380.61646	-7.06781	-110.98394	1426.51599	-43.03392	-296.34933	1378.93860	0.99301	-405.88062	1372.94263	-109.68133	-531.37817	1386.88879	-1.39738	-655.22955	1413.65698	-43.63028	-716.62738	1374.27625	-87.63166	-678.06464	1375.69104	28.80025	-717.33722	1410.02039	-30.27275	170.83714	681.25238	60.04318	192.77602	487.72394	-17.37881	203.65813	375.54056	-140.81258	202.86609	167.07056	-84.31712	151.95869	45.85307	-172.74753	211.95695	64.28984	4.35701	154.62756	57.64577	99.31835	-128.97609	671.90112	51.16874	-160.21733	511.94904	-25.61998	-189.71848	376.55701	-130.52243	-182.30624	165.78236	-98.69159	-122.73172	47.46129	-170.74741	-205.95834	65.32327	5.52892	-150.52641	65.07617	100.68255	33.55146	1692.60132	-38.91308	92.02069	1626.23413	56.73288	123.61261	1547.07495	-70.87109	-45.51564	1625.94775	36.39976	-34.40774	1545.89966	-101.01971	
107	0.883	31.52408	977.77948	-152.45688	163.50674	936.47113	55.37442	164.10889	970.95789	-118.35500	-110.11256	931.37909	61.98266	-106.62916	950.61047	-128.35300	31.86339	1136.52954	-148.30016	33.86084	1279.23865	-152.09480	42.56356	1406.36487	-119.34875	-53.04713	1044.05554	-137.35258	131.61224	1352.81458	-137.80620	55.76286	1214.22607	111.31512	-3.40722	1285.35657	96.95965	128.97694	1324.53235	78.24438	-72.03855	1331.11267	65.47770	167.04002	1425.74976	-21.48954	361.48563	1380.32031	-15.50052	478.80997	1362.02820	-85.57030	589.06500	1368.22046	1.23636	709.40906	1374.55200	-18.79764	771.77972	1339.99194	-63.42412	738.06610	1352.46167	48.03247	763.96838	1380.62024	-7.15553	-111.11235	1426.50024	-43.41920	-296.26169	1379.02710	0.81773	-405.89188	1373.04968	-109.69051	-531.42090	1386.78064	-1.44172	-655.13092	1413.49011	-43.62755	-716.61279	1374.30127	-87.75668	-677.98523	1375.73547	28.83563	-717.27777	1410.15710	-30.43435	170.88725	681.31781	60.05465	192.87749	487.78058	-17.32267	203.63512	375.50891	-140.82437	202.86609	167.07056	-84.31712	151.65665	46.24535	-173.26758	211.95695	64.28984	4.35701	154.62756	57.64577	99.31835	-128.90633	671.83667	51.18060	-160.21733	511.94904	-25.61998	-189.71848	376.55701	-130.52243	-182.30624	165.78236	-98.69159	-122.79291	47.56316	-170.73524	-205.95834	65.32327	5.52892	-150.56465	65.00368	100.77838	33.52590	1692.55688	-38.93122	91.93861	1626.26831	56.72213	123.63072	1547.12439	-71.44691	-45.58191	1625.99231	36.36050	-34.37162	1545.75769	-101.20229	
